<?xml version="1.0" standalone="no"?>
<svg fill="white" version="1.0" xmlns="http://www.w3.org/2000/svg" width="512.000000pt" height="512.000000pt"
    viewBox="0 0 512.000000 512.000000" preserveAspectRatio="xMidYMid meet">

    <g fill="white" transform="translate(0.000000,512.000000) scale(0.100000,-0.100000)"  stroke="none">
        <path d="M628 5008 c-8 -7 -115 -120 -236 -251 -169 -181 -223 -245 -227 -270
-4 -18 -5 -125 -3 -236 3 -187 5 -204 22 -217 16 -11 63 -14 218 -14 l198 0 0
-1744 0 -1743 -37 -6 c-58 -10 -138 -54 -188 -105 -61 -62 -96 -136 -103 -217
-9 -115 -80 -105 723 -105 675 0 692 0 710 20 43 47 -6 214 -88 298 -53 55
-94 80 -165 102 l-57 18 0 1738 0 1739 1077 3 1076 2 4 -129 c4 -176 -1 -171
180 -171 l138 0 0 -203 0 -204 -41 -12 c-25 -8 -60 -31 -89 -60 -129 -129 -98
-342 64 -436 14 -8 -61 -74 -453 -393 -463 -378 -470 -385 -476 -425 -3 -23
-5 -254 -3 -514 3 -438 4 -474 21 -490 17 -17 71 -18 1022 -18 951 0 1005 1
1022 18 17 16 18 52 21 490 2 260 0 491 -3 514 -6 41 -12 47 -463 414 -251
205 -461 376 -466 380 -4 4 9 16 31 28 69 35 137 129 125 173 -7 27 -47 51
-72 43 -11 -4 -32 -24 -46 -46 -33 -53 -78 -79 -134 -79 -85 0 -150 65 -150
150 0 81 47 133 135 149 27 5 55 17 62 27 10 13 13 76 13 256 l0 238 128 0
c178 0 172 -6 172 166 l0 134 79 0 c114 0 111 -8 111 262 0 211 -1 218 -22
242 -21 23 -43 28 -258 60 -239 36 -1374 209 -2332 355 l-527 81 -349 0 c-263
0 -352 -3 -364 -12z m309 -253 c-114 -80 -209 -145 -212 -145 -3 0 -5 65 -5
145 l0 145 211 0 211 0 -205 -145z m1573 -35 c580 -88 1062 -162 1070 -164 8
-2 -481 -4 -1087 -5 l-1103 -1 0 171 0 171 33 -6 c17 -3 507 -78 1087 -166z
m-1243 -167 c-2 -2 -95 -2 -205 -1 l-202 3 203 142 202 142 3 -141 c1 -77 1
-142 -1 -145z m-670 0 c-3 -2 -55 -2 -116 -1 l-112 3 113 122 113 123 3 -122
c1 -66 1 -122 -1 -125z m3763 -268 l0 -145 -178 0 c-203 0 -222 -6 -222 -65 0
-46 20 -55 124 -55 l86 0 0 -90 0 -90 -245 0 -245 0 0 90 0 90 66 0 c84 0 104
11 104 55 0 70 149 65 -1802 65 l-1758 0 0 145 0 145 2035 0 2035 0 0 -145z
m-3090 -435 c0 -93 -2 -170 -4 -170 -2 0 -124 56 -272 123 -267 123 -269 124
-272 156 -6 64 -18 61 278 61 l270 0 0 -170z m-315 -161 c121 -56 223 -105
228 -108 5 -6 -381 -192 -454 -219 -5 -2 -9 90 -9 212 0 119 4 216 8 216 4 0
107 -46 227 -101z m312 -655 c-4 -4 -459 204 -470 215 -4 4 99 57 230 117
l238 109 3 -219 c1 -120 1 -220 -1 -222z m-308 4 c122 -56 221 -104 221 -108
0 -7 -436 -210 -451 -210 -5 0 -9 94 -9 210 0 116 4 210 9 210 5 0 108 -46
230 -102z m311 -422 l0 -215 -162 76 c-90 41 -194 89 -233 108 l-70 32 105 49
c58 27 159 74 225 106 66 31 123 57 128 57 4 1 7 -95 7 -213z m3062 -239 c208
-169 380 -312 383 -317 4 -7 -277 -10 -802 -10 -800 0 -807 0 -788 19 11 11
193 161 405 334 370 302 386 314 405 298 12 -9 190 -154 397 -324z m-3369 34
c125 -58 226 -106 224 -107 -3 -4 -459 -214 -464 -214 -1 0 -3 97 -3 216 0
119 4 214 8 212 5 -1 111 -50 235 -107z m303 -638 c-2 -3 -110 44 -240 103
-129 60 -234 109 -233 111 2 1 109 51 238 111 l234 108 3 -215 c1 -118 0 -216
-2 -218z m3564 -268 l0 -425 -915 0 -915 0 0 425 0 425 915 0 915 0 0 -425z
m-3877 273 c122 -56 226 -104 230 -108 6 -5 -379 -190 -454 -218 -5 -2 -9 92
-9 212 0 119 2 216 5 216 3 0 105 -46 228 -102z m314 -655 c-5 -5 -476 210
-477 218 0 3 107 55 238 115 l237 110 3 -220 c1 -120 1 -221 -1 -223z m-310 5
c123 -57 223 -106 223 -109 0 -7 -436 -209 -451 -209 -5 0 -9 91 -9 210 0 116
3 210 7 210 3 0 107 -46 230 -102z m313 -398 l0 -190 -275 0 -276 0 3 65 3 66
110 51 c190 88 430 198 433 198 1 0 2 -85 2 -190z m180 -336 c64 -30 140 -119
140 -165 0 -5 -234 -9 -600 -9 l-600 0 11 28 c17 44 56 95 94 121 70 47 102
50 520 48 372 -2 392 -3 435 -23z" />
        <path d="M1987 4322 c-22 -24 -21 -65 1 -85 17 -15 78 -17 675 -17 644 0 657
0 677 20 11 11 20 29 20 40 0 11 -9 29 -20 40 -20 20 -33 20 -678 20 -626 0
-660 -1 -675 -18z" />
        <path d="M3440 4320 c-46 -46 -9 -100 70 -100 37 0 55 5 70 20 46 46 9 100
-70 100 -37 0 -55 -5 -70 -20z" />
        <path d="M3269 1723 c-11 -12 -14 -61 -14 -213 0 -218 3 -230 60 -230 57 0 60
12 60 230 0 218 -3 230 -60 230 -18 0 -39 -7 -46 -17z" />
        <path d="M3669 1723 c-11 -12 -14 -61 -14 -213 0 -218 3 -230 60 -230 57 0 60
12 60 230 0 218 -3 230 -60 230 -18 0 -39 -7 -46 -17z" />
        <path d="M4069 1723 c-11 -12 -14 -61 -14 -213 0 -218 3 -230 60 -230 57 0 60
12 60 230 0 218 -3 230 -60 230 -18 0 -39 -7 -46 -17z" />
        <path d="M4469 1723 c-11 -12 -14 -61 -14 -213 0 -218 3 -230 60 -230 57 0 60
12 60 230 0 218 -3 230 -60 230 -18 0 -39 -7 -46 -17z" />
    </g>
</svg>