<?xml version="1.0" standalone="no"?>
<!DOCTYPE svg PUBLIC "-//W3C//DTD SVG 20010904//EN"
 "http://www.w3.org/TR/2001/REC-SVG-20010904/DTD/svg10.dtd">
<svg version="1.0" xmlns="http://www.w3.org/2000/svg"
 width="512.000000pt" height="512.000000pt" viewBox="0 0 512.000000 512.000000"
 preserveAspectRatio="xMidYMid meet">

<g transform="translate(0.000000,512.000000) scale(0.100000,-0.100000)"
fill="white" stroke="none">
<path d="M2397 5025 c-80 -16 -159 -51 -205 -90 -32 -27 -72 -92 -72 -117 0
-7 -39 -31 -87 -53 -264 -120 -478 -360 -574 -641 -34 -103 -59 -232 -59 -313
0 -56 -1 -57 -34 -69 -47 -17 -112 -91 -126 -143 -35 -128 53 -265 178 -277
l48 -4 21 -84 c71 -273 262 -510 538 -670 15 -8 3 -14 -66 -33 -114 -31 -242
-82 -373 -149 -74 -38 -111 -52 -114 -43 -2 7 -13 21 -25 32 -19 17 -36 19
-187 19 -128 0 -170 -3 -186 -15 -12 -7 -34 -48 -50 -89 -28 -74 -29 -75 -78
-91 -28 -9 -72 -28 -99 -42 l-49 -25 -69 31 c-108 49 -107 49 -247 -92 -67
-68 -122 -132 -122 -141 0 -10 13 -48 30 -86 16 -38 30 -72 30 -77 0 -5 -16
-46 -35 -92 -19 -45 -35 -89 -35 -96 0 -7 -32 -25 -72 -40 -115 -43 -112 -39
-116 -221 -5 -209 -6 -206 122 -256 56 -22 60 -26 76 -73 10 -28 27 -69 39
-92 27 -54 27 -58 -10 -139 -20 -46 -28 -77 -24 -94 9 -35 222 -248 256 -255
18 -4 48 3 94 24 81 37 84 37 138 10 23 -12 64 -29 92 -39 48 -16 51 -19 75
-81 47 -120 45 -119 244 -119 181 0 187 3 226 105 13 33 26 64 31 68 6 8 150
71 190 84 9 2 48 -9 87 -26 39 -17 78 -31 88 -31 9 0 73 55 141 122 108 107
123 126 123 155 l0 33 195 0 194 0 -5 -63 c-8 -88 17 -205 51 -234 51 -44 66
-36 236 133 l157 157 70 -18 70 -17 16 -57 c9 -32 16 -64 16 -72 0 -8 -63 -77
-141 -154 -78 -77 -147 -154 -155 -172 -27 -61 8 -102 104 -122 116 -24 224
-10 342 46 187 89 315 310 296 510 l-6 62 446 3 446 3 19 24 c24 29 25 88 4
202 -29 156 -85 334 -152 486 -4 10 11 13 59 13 79 0 203 30 267 66 202 109
313 345 267 563 -19 89 -44 121 -95 121 -31 0 -49 -14 -190 -154 l-156 -155
-64 18 c-70 19 -73 22 -94 102 l-15 57 154 153 c143 143 154 156 154 191 0 60
-33 81 -151 98 -253 36 -501 -129 -574 -382 l-16 -58 -77 66 c-209 179 -528
347 -774 409 l-67 17 86 55 c114 71 202 149 280 248 96 121 154 247 209 453 2
6 18 12 36 12 43 1 106 30 140 66 102 109 61 309 -73 356 -25 9 -28 15 -34 81
-21 240 -84 415 -212 596 -100 140 -286 292 -437 356 -57 24 -66 32 -80 70
-34 88 -126 150 -268 179 -91 19 -139 19 -231 1z m211 -160 c83 -19 129 -46
138 -80 3 -14 -11 -156 -31 -316 l-38 -290 20 -27 c16 -22 28 -27 63 -27 68 0
74 15 107 275 26 199 31 225 47 224 38 -4 183 -103 261 -179 165 -162 259
-352 284 -578 6 -53 11 -99 11 -102 0 -3 -76 -5 -170 -5 l-170 0 0 266 0 266
-30 30 c-26 25 -36 29 -63 24 -66 -13 -67 -18 -67 -317 l0 -269 -455 0 -454 0
-3 271 -3 271 -28 24 c-36 31 -71 31 -102 -1 l-25 -24 0 -271 0 -270 -170 0
-170 0 0 44 c0 72 29 213 60 294 83 215 256 411 449 507 29 15 54 25 56 23 2
-2 15 -93 29 -203 34 -264 34 -263 57 -286 26 -26 83 -25 109 1 27 27 26 58
-15 369 -31 239 -33 267 -20 288 20 30 67 54 135 69 75 17 110 17 188 -1z
m1004 -1282 c22 -20 24 -66 2 -87 -14 -14 -128 -16 -1104 -16 l-1089 0 -15 22
c-21 30 -20 54 4 78 20 20 33 20 1102 20 992 0 1083 -1 1100 -17z m-227 -300
c-8 -48 -63 -177 -107 -251 -51 -87 -218 -248 -311 -301 -227 -128 -487 -156
-727 -79 -280 90 -503 314 -589 592 -11 37 -21 70 -21 72 0 2 397 4 881 4
l881 0 -7 -37z m-704 -843 c440 -45 836 -229 1142 -533 l90 -89 -344 -344
-344 -345 -65 8 c-223 26 -404 -46 -521 -207 l-44 -60 -243 0 c-134 0 -242 3
-240 8 2 4 17 41 33 84 l30 76 65 23 c110 39 110 39 110 237 0 197 1 196 -106
233 -43 16 -69 31 -75 44 -4 11 -23 58 -43 104 l-35 84 30 65 c48 106 46 109
-89 244 -135 136 -138 137 -245 88 l-65 -30 -74 34 -73 34 125 61 c314 152
650 214 981 181z m1601 -203 c-55 -57 -105 -115 -111 -129 -8 -21 -2 -55 25
-160 20 -73 43 -141 52 -150 23 -23 275 -91 305 -83 12 4 71 55 131 114 l108
106 -6 -44 c-15 -98 -106 -209 -211 -257 -73 -34 -173 -42 -247 -20 -107 31
-72 56 -506 -376 -216 -216 -400 -406 -408 -421 -14 -25 -13 -34 2 -80 26 -74
23 -187 -5 -259 -42 -109 -165 -211 -281 -233 -33 -7 -30 -2 78 107 97 100
112 119 112 148 0 60 -60 267 -84 288 -23 21 -235 82 -285 82 -28 0 -49 -16
-146 -111 l-113 -110 9 43 c43 190 229 318 420 287 34 -5 70 -14 80 -19 47
-25 55 -18 472 398 l408 407 -4 40 c-3 22 -11 72 -18 112 -29 164 56 319 215
394 34 16 72 29 85 29 21 0 10 -15 -77 -103z m-2916 -72 c31 -77 44 -88 129
-115 39 -12 98 -37 133 -56 75 -41 91 -41 160 -9 30 14 59 25 66 25 6 0 36
-25 66 -55 54 -54 54 -55 41 -88 -7 -17 -20 -51 -29 -74 l-16 -42 41 -88 c23
-48 49 -114 59 -146 21 -68 32 -80 110 -111 l59 -24 3 -84 3 -85 -71 -27 c-75
-30 -83 -39 -107 -119 -8 -29 -33 -87 -54 -130 -21 -43 -39 -86 -39 -96 0 -11
13 -48 29 -84 l29 -65 -58 -57 -59 -58 -59 26 c-78 35 -104 34 -182 -7 -36
-19 -97 -44 -137 -56 -40 -12 -77 -27 -82 -34 -6 -7 -21 -42 -35 -77 l-24 -64
-84 -3 -84 -3 -23 65 c-27 78 -40 90 -121 117 -35 11 -99 38 -142 59 -86 42
-88 42 -182 1 l-50 -22 -58 59 -59 58 22 50 c41 94 41 96 -1 182 -21 43 -48
107 -59 142 -27 81 -39 94 -117 121 l-64 23 0 82 0 82 68 27 c37 15 73 31 79
37 7 6 22 41 33 78 11 37 36 100 56 140 20 40 36 82 37 95 0 12 -13 50 -28 84
l-28 62 58 59 57 58 65 -29 c36 -16 74 -29 84 -29 11 0 48 14 82 32 34 17 98
44 142 60 44 15 86 36 93 45 7 10 22 44 34 76 l21 58 84 -3 85 -3 24 -60z
m2907 -971 c32 -92 77 -272 77 -309 0 -13 -42 -15 -332 -15 l-333 0 255 255
255 255 21 -43 c12 -24 38 -88 57 -143z"/>
<path d="M1180 1850 c-187 -26 -351 -149 -429 -321 -123 -271 -10 -596 252
-728 373 -187 810 79 811 493 0 157 -53 285 -164 396 -125 125 -299 184 -470
160z m145 -161 c121 -22 231 -103 285 -210 103 -202 25 -436 -178 -536 -73
-36 -80 -38 -177 -38 -87 0 -107 4 -158 27 -80 38 -161 117 -200 197 -29 61
-32 74 -32 166 0 97 2 104 38 177 66 135 189 215 348 227 8 0 42 -4 74 -10z"/>
</g>
</svg>
