<?xml version="1.0" standalone="no"?>
<!DOCTYPE svg PUBLIC "-//W3C//DTD SVG 20010904//EN"
 "http://www.w3.org/TR/2001/REC-SVG-20010904/DTD/svg10.dtd">
<svg version="1.0" xmlns="http://www.w3.org/2000/svg"
 width="512.000000pt" height="512.000000pt" viewBox="0 0 512.000000 512.000000"
 preserveAspectRatio="xMidYMid meet">

<g transform="translate(0.000000,512.000000) scale(0.100000,-0.100000)"
fill="white" stroke="none">
<path d="M2230 5098 c0 -20 -12 -27 -83 -52 -169 -60 -307 -146 -443 -278
-187 -181 -308 -401 -358 -648 -14 -70 -7 -65 -104 -90 -163 -42 -220 -272
-99 -398 18 -19 49 -43 70 -54 36 -18 38 -21 23 -36 -36 -41 -70 -136 -74
-214 -7 -124 24 -213 106 -300 56 -61 116 -96 195 -118 l60 -16 22 -60 c61
-162 117 -237 365 -485 280 -281 297 -289 650 -289 354 0 370 8 650 289 248
249 304 323 365 485 l22 60 60 16 c79 22 139 57 195 118 82 87 113 176 106
300 -4 78 -38 173 -74 214 -15 15 -13 18 23 36 50 26 98 77 119 127 22 53 21
141 -3 196 -26 57 -90 115 -145 129 -97 25 -90 20 -104 90 -50 247 -171 467
-358 648 -136 132 -274 218 -443 278 -71 25 -83 32 -83 52 l0 22 -330 0 -330
0 0 -22z m500 -518 l0 -370 80 0 80 0 0 346 0 345 23 -7 c51 -15 173 -76 235
-118 143 -95 279 -244 362 -398 39 -72 91 -218 104 -290 l7 -38 -1061 0 -1061
0 7 38 c13 72 65 218 104 290 83 154 219 303 362 398 62 42 184 103 236 118
l22 7 0 -345 0 -346 80 0 80 0 0 370 0 370 170 0 170 0 0 -370z m1125 -725
c16 -15 25 -36 25 -55 0 -19 -9 -40 -25 -55 l-24 -25 -1271 0 -1271 0 -24 25
c-16 15 -25 36 -25 55 0 19 9 40 25 55 l24 25 1271 0 1271 0 24 -25z m-388
-567 c-3 -233 -7 -271 -26 -336 -24 -81 -57 -153 -104 -222 -44 -66 -425 -448
-472 -473 -38 -21 -52 -22 -305 -22 -253 0 -267 1 -305 22 -47 25 -428 407
-472 473 -47 69 -80 141 -104 222 -19 65 -23 103 -26 336 l-5 262 912 0 912 0
-5 -262z m-1977 13 c0 -222 -1 -229 -19 -224 -33 8 -100 73 -123 117 -51 96
-18 235 71 303 73 56 71 62 71 -196z m2211 196 c89 -68 122 -207 71 -303 -23
-44 -90 -109 -123 -117 -18 -5 -19 2 -19 224 0 258 -2 252 71 196z"/>
<path d="M1900 4295 l0 -85 80 0 80 0 0 85 0 85 -80 0 -80 0 0 -85z"/>
<path d="M3060 4295 l0 -85 80 0 80 0 0 85 0 85 -80 0 -80 0 0 -85z"/>
<path d="M1820 2096 l0 -54 -382 -128 c-414 -138 -504 -177 -622 -272 -145
-118 -258 -297 -302 -477 -15 -63 -194 -1123 -194 -1150 0 -13 234 -15 2240
-15 2006 0 2240 2 2240 15 0 27 -179 1087 -194 1150 -44 180 -157 359 -302
477 -118 95 -208 134 -621 272 l-383 128 0 54 0 54 -80 0 -80 0 0 -77 c-1 -62
-14 -130 -63 -326 l-62 -249 -168 201 -167 201 -120 0 -119 0 -168 -200 -168
-200 -62 247 c-49 196 -62 264 -63 326 l0 77 -80 0 -80 0 0 -54z m110 -576
c48 -190 89 -352 91 -359 4 -10 37 23 94 92 50 59 92 107 95 107 3 0 26 -33
52 -73 l47 -72 -75 -520 c-40 -285 -74 -520 -74 -522 0 -2 -205 -3 -455 -3
-337 0 -455 3 -455 12 0 6 16 168 35 361 20 192 34 351 32 353 -2 2 -38 7 -80
12 -74 8 -78 7 -82 -12 -2 -12 -14 -122 -26 -246 -12 -124 -22 -226 -24 -228
-1 -1 -120 12 -265 30 -175 22 -264 37 -267 45 -7 17 94 614 114 672 21 65 69
158 109 212 52 71 156 163 231 206 68 38 773 284 802 280 11 -1 40 -102 101
-347z m1724 230 c202 -67 389 -136 428 -157 78 -42 188 -138 241 -211 41 -55
89 -148 110 -213 20 -58 121 -655 114 -672 -3 -8 -92 -23 -267 -45 -145 -18
-264 -31 -265 -30 -2 2 -12 104 -24 228 -12 124 -24 234 -26 246 -4 19 -8 20
-82 12 -42 -5 -78 -10 -80 -12 -2 -2 12 -161 32 -353 19 -193 35 -355 35 -361
0 -9 -118 -12 -455 -12 -250 0 -455 1 -455 3 0 2 -34 237 -74 522 l-75 520 47
72 c26 40 50 73 53 73 3 0 46 -47 94 -106 48 -58 89 -104 91 -102 1 2 41 159
89 348 96 387 91 370 103 370 4 0 169 -54 366 -120z m-951 -136 l96 -115 -80
-121 -81 -121 76 -526 c42 -289 76 -534 76 -543 0 -17 -18 -18 -230 -18 -212
0 -230 1 -230 18 0 9 34 254 75 544 l76 527 -80 120 -80 120 96 115 96 116 47
0 47 0 96 -116z m-1880 -1326 c292 -35 278 -30 261 -95 l-6 -23 -285 0 c-266
0 -284 1 -279 18 3 9 8 40 12 67 7 53 11 65 22 65 4 1 127 -14 275 -32z m3769
-18 c4 -25 9 -57 12 -72 l6 -28 -284 0 -284 0 -6 23 c-17 65 -29 60 237 94
133 17 258 30 277 29 33 -1 35 -3 42 -46z"/>
</g>
</svg>
