<?xml version="1.0" standalone="no"?>
<!DOCTYPE svg PUBLIC "-//W3C//DTD SVG 20010904//EN"
 "http://www.w3.org/TR/2001/REC-SVG-20010904/DTD/svg10.dtd">
<svg version="1.0" xmlns="http://www.w3.org/2000/svg"
 width="512.000000pt" height="512.000000pt" viewBox="0 0 512.000000 512.000000"
 preserveAspectRatio="xMidYMid meet">

<g transform="translate(0.000000,512.000000) scale(0.100000,-0.100000)"
fill="#FC5E28" stroke="none">
<path d="M1550 5113 c-81 -9 -208 -36 -245 -52 -157 -70 -206 -264 -98 -390
53 -63 90 -80 220 -101 239 -39 414 -108 608 -238 128 -86 142 -98 130 -115
-5 -8 -54 -64 -108 -123 -122 -137 -152 -192 -151 -289 1 -92 24 -141 125
-252 l78 -88 -272 -272 -272 -273 -67 0 c-153 0 -183 -24 -764 -604 -463 -464
-555 -565 -580 -639 -29 -83 -24 -172 13 -248 64 -128 328 -390 453 -448 42
-19 71 -25 126 -25 119 -1 161 27 419 272 238 226 643 635 793 801 112 122
134 166 140 277 l4 82 272 270 271 271 90 -81 c114 -103 166 -128 260 -127 39
0 79 4 90 9 16 6 31 -3 77 -47 l56 -56 -14 -40 c-22 -63 -18 -144 12 -207 31
-66 216 -256 284 -290 65 -33 151 -37 222 -10 48 18 82 45 220 178 90 86 232
229 317 316 185 192 206 228 199 341 -6 96 -34 142 -158 266 -122 120 -175
149 -274 149 -39 -1 -84 -7 -101 -14 -29 -13 -31 -12 -87 42 -52 50 -56 57
-46 81 6 14 10 55 11 91 0 86 -23 137 -104 229 -112 127 -104 108 -69 177 41
79 43 152 6 228 -31 63 -230 263 -296 296 -69 35 -152 31 -228 -11 l-60 -33
-94 85 c-210 191 -362 309 -397 309 -52 0 -87 -41 -76 -90 5 -21 30 -47 98
-98 51 -38 151 -120 222 -183 257 -225 793 -768 833 -844 24 -47 20 -108 -11
-153 -75 -107 -355 -391 -523 -528 -56 -46 -129 -57 -181 -27 -76 43 -502 458
-745 726 -157 172 -161 206 -40 346 36 42 101 113 144 157 108 113 107 131
-14 230 -253 209 -545 337 -862 379 -66 9 -106 48 -106 102 1 67 35 94 151
118 237 50 486 21 736 -86 102 -43 128 -47 161 -23 29 20 31 83 3 108 -27 25
-187 92 -286 121 -156 45 -363 64 -515 48z m1843 -902 c111 -110 117 -118 117
-156 0 -78 -12 -72 -179 94 -159 157 -170 175 -118 183 44 7 64 -7 180 -121z
m-1020 -1019 l157 -157 -255 -255 c-153 -152 -258 -251 -263 -245 -105 122
-150 169 -217 228 -44 39 -82 75 -84 80 -3 9 487 507 499 507 3 0 76 -71 163
-158z m1173 -213 l-230 -230 -39 39 -39 40 48 43 c97 86 282 271 345 344 l64
74 41 -40 41 -40 -231 -230z m592 147 c71 -63 145 -144 161 -173 6 -12 11 -40
11 -62 0 -37 -8 -50 -79 -129 -114 -126 -502 -507 -542 -531 -66 -40 -107 -28
-203 60 -107 99 -146 152 -146 203 0 23 8 53 17 66 31 46 283 308 438 455 206
196 237 206 343 111z m-2570 -375 c84 -44 319 -279 363 -363 23 -45 25 -108 3
-151 -21 -40 -165 -196 -455 -491 -216 -220 -590 -578 -638 -613 -35 -24 -97
-35 -139 -23 -66 17 -268 200 -367 332 -85 113 -74 166 68 321 282 308 938
951 1010 989 43 23 109 22 155 -1z"/>
<path d="M2445 2291 c-68 -17 -118 -56 -149 -118 -20 -40 -22 -180 -2 -226 17
-43 69 -94 113 -112 64 -27 335 -10 403 25 107 55 149 195 91 308 -41 80 -96
108 -227 117 -49 3 -114 7 -144 9 -30 2 -68 1 -85 -3z m243 -157 c62 -7 92
-30 92 -73 0 -16 -8 -39 -19 -52 -17 -21 -30 -24 -155 -32 -126 -9 -137 -9
-156 8 -17 16 -20 29 -18 79 3 51 6 62 26 72 22 11 114 10 230 -2z"/>
<path d="M4075 1984 c-166 -10 -368 -44 -498 -84 -125 -39 -200 -134 -199
-253 0 -34 5 -75 12 -92 31 -79 112 -148 196 -165 47 -10 65 -8 151 13 54 14
110 28 126 31 l27 6 0 -528 0 -529 98 -153 c139 -218 181 -257 233 -217 9 7
68 91 132 187 l117 175 0 147 c0 140 -1 148 -23 174 -31 35 -82 38 -109 5 -15
-20 -18 -42 -18 -152 l0 -129 -67 -100 c-36 -55 -69 -100 -72 -100 -4 0 -37
47 -74 103 l-67 104 0 516 0 517 140 0 140 0 0 -270 c0 -257 1 -271 20 -290
30 -30 83 -27 109 6 20 25 21 39 21 281 l0 253 28 -6 c15 -3 54 -13 87 -21
110 -28 140 -31 187 -22 65 12 97 30 146 82 125 137 71 351 -106 417 -165 62
-513 106 -737 94z m394 -170 c122 -16 260 -48 299 -68 66 -34 87 -107 46 -163
-33 -45 -76 -54 -154 -32 -136 37 -238 51 -413 56 -209 7 -341 -6 -505 -48
-103 -26 -116 -28 -147 -15 -86 36 -91 157 -7 200 32 16 170 51 267 66 187 31
409 32 614 4z"/>
<path d="M2825 1660 c-16 -6 -88 -41 -160 -78 -114 -59 -133 -72 -157 -113
-17 -26 -31 -67 -35 -96 -5 -44 -1 -61 24 -115 35 -74 90 -132 140 -149 19 -6
62 -9 94 -7 55 4 68 10 190 93 101 68 136 98 156 132 83 142 -11 324 -175 338
-26 2 -60 0 -77 -5z m109 -171 c50 -59 39 -78 -108 -178 -111 -75 -134 -78
-176 -19 -36 49 -38 77 -7 105 27 26 223 123 248 123 9 0 29 -14 43 -31z"/>
<path d="M3245 1191 c-22 -10 -52 -31 -66 -47 -27 -29 -135 -188 -159 -234
-37 -68 -27 -168 22 -233 15 -18 55 -49 90 -67 52 -28 74 -34 123 -34 112 0
160 45 244 228 69 149 77 205 42 275 -23 44 -81 98 -127 117 -46 19 -121 17
-169 -5z m139 -152 c39 -30 33 -65 -29 -189 -62 -123 -83 -142 -133 -121 -46
19 -72 49 -72 80 0 26 92 181 138 234 20 23 63 22 96 -4z"/>
</g>
</svg>
